<svg width="416" height="600" viewBox="0 0 416 600" fill="none" xmlns="http://www.w3.org/2000/svg">
<path fill-rule="evenodd" clip-rule="evenodd" d="M256 28C256 12.536 268.536 0 284 0H366C393.614 0 416 22.3858 416 50V110C416 137.614 393.614 160 366 160H280C266.745 160 256 149.255 256 136V136C256 122.745 245.255 112 232 112H188C172.536 112 160 124.536 160 140V140C160 155.464 147.464 168 132 168V168C116.536 168 104 180.536 104 196V220C104 235.464 116.536 248 132 248V248C147.464 248 160 260.536 160 276V347.692C160 360.952 165.268 373.67 174.645 383.047L216.953 425.355C226.33 434.732 239.048 440 252.308 440H302C329.614 440 352 462.386 352 490V550C352 577.614 329.614 600 302 600H242C214.386 600 192 577.614 192 550V500.309C192 487.048 186.732 474.33 177.355 464.954L135.046 422.645C125.67 413.268 112.952 408 99.691 408H50C22.3858 408 0 385.614 0 358V272C0 258.745 10.7452 248 24 248V248C37.2548 248 48 237.255 48 224V192C48 178.745 37.2548 168 24 168V168C10.7452 168 0 157.255 0 144V58C0 30.3858 22.3858 8 50 8H136C149.255 8 160 18.7452 160 32V32C160 45.2548 170.745 56 184 56H228C243.464 56 256 43.464 256 28V28Z" fill="#7F57F1"/>
<path d="M400 304C400 361.438 353.438 408 296 408C238.562 408 192 361.438 192 304C192 246.562 238.562 200 296 200C353.438 200 400 246.562 400 304ZM201 304C201 356.467 243.533 399 296 399C348.467 399 391 356.467 391 304C391 251.533 348.467 209 296 209C243.533 209 201 251.533 201 304Z" fill="#7F57F1"/>
<circle cx="296" cy="304" r="32" fill="#7F57F1"/>
<circle cx="225.8" cy="233.8" r="13" fill="#7F57F1"/>
</svg>
