<svg width="100" height="100" viewBox="0 0 100 100" fill="none" xmlns="http://www.w3.org/2000/svg">
<path d="M14.5754 10.6202C24.245 2.49968 41.2407 0.164718 48.5298 0.0123054C78.572 -0.646118 93.9561 25.2823 97.8928 38.3289C101.091 46.8945 103.041 68.2506 85.2521 85.1501C63.0157 106.275 26.3857 102.617 15.6826 88.1679C4.97964 73.7191 5.81005 74.908 2.94976 64.8487C0.093251 54.8027 -0.648662 43.2975 0.550812 38.3289C1.19668 32.4762 4.90583 18.7408 14.5754 10.6202Z" fill="#333333"/>
<path fill-rule="evenodd" clip-rule="evenodd" d="M56.9974 63.0371C54.6764 63.0364 52.3977 62.4145 50.3982 61.2356C48.3988 60.0568 46.7512 58.3642 45.627 56.3335C44.5027 54.3028 43.9425 52.0083 44.0047 49.6879C44.0669 47.3676 44.749 45.1063 45.9804 43.1388C45.8861 42.9216 45.8383 42.687 45.8403 42.4502C45.8403 41.9674 46.0322 41.5043 46.3737 41.1628C46.715 40.8213 47.1781 40.6296 47.6609 40.6296C47.7696 40.6176 47.8792 40.6176 47.9877 40.6296C49.5212 39.1551 51.393 38.0795 53.439 37.497C55.485 36.9144 57.6428 36.8428 59.7228 37.2885C61.803 37.7342 63.7419 38.6836 65.3696 40.0533C66.9973 41.423 68.2642 43.1711 69.0588 45.1445C69.8535 47.1177 70.1518 49.2559 69.9276 51.3714C69.7034 53.4868 68.9635 55.5149 67.7727 57.2779C66.5821 59.0407 64.977 60.4845 63.0983 61.4826C61.2197 62.4805 59.1247 63.0023 56.9974 63.0021V63.0371ZM49.038 41.2717C51.2148 39.2907 54.0541 38.1958 56.9974 38.2023V38.1906C59.6087 38.1941 62.1456 39.0603 64.2138 40.6547C66.2818 42.249 67.7652 44.4819 68.4331 47.0064C69.1011 49.5307 68.9161 52.2051 67.907 54.6136C66.898 57.0221 65.1214 59.0296 62.8536 60.324C60.5857 61.6185 57.9537 62.1272 55.3668 61.7713C52.7799 61.4153 50.3831 60.2145 48.549 58.3557C46.7151 56.4968 45.5468 54.084 45.2257 51.4925C44.9047 48.9011 45.449 46.2761 46.774 44.0259C47.0445 44.1792 47.35 44.2596 47.6609 44.2593C47.901 44.2609 48.1389 44.2149 48.3611 44.1241C48.5835 44.0333 48.7855 43.8994 48.9558 43.7302C49.1262 43.561 49.2613 43.3598 49.3535 43.1382C49.4457 42.9165 49.4932 42.6788 49.4932 42.4387C49.4863 42.0077 49.3248 41.5936 49.038 41.2717ZM54.8759 53.2203C55.5038 53.6402 56.2421 53.8642 56.9974 53.8642C57.4979 53.8658 57.9939 53.7685 58.4569 53.578C58.9199 53.3875 59.3407 53.1075 59.6952 52.754C60.0497 52.4006 60.331 51.9806 60.5229 51.5183C60.7148 51.0559 60.8137 50.5602 60.8137 50.0596C60.816 49.3043 60.5941 48.5653 60.1762 47.9363C59.7583 47.3071 59.163 46.8161 58.4659 46.5255C57.7688 46.2349 57.0011 46.1577 56.26 46.3036C55.519 46.4496 54.8379 46.8121 54.303 47.3453C53.7681 47.8785 53.4035 48.5586 53.2553 49.2992C53.1071 50.0398 53.182 50.8077 53.4705 51.5057C53.759 52.2036 54.2481 52.8003 54.8759 53.2203Z" fill="#D8D8D8"/>
<path fill-rule="evenodd" clip-rule="evenodd" d="M52 15.5C52 13.567 53.567 12 55.5 12H67C69.7614 12 72 14.2386 72 17V27C72 29.7614 69.7614 32 67 32H55C53.3431 32 52 30.6569 52 29V29C52 27.3431 50.6569 26 49 26H43.5C41.567 26 40 27.567 40 29.5V29.5C40 31.433 38.433 33 36.5 33V33C34.567 33 33 34.567 33 36.5V39.5C33 41.433 34.567 43 36.5 43V43C38.433 43 40 44.567 40 46.5V55.9792C40 57.3053 40.5268 58.577 41.4645 59.5147L47.4853 65.5355C48.423 66.4732 49.6947 67 51.0208 67H59C61.7614 67 64 69.2386 64 72V82C64 84.7614 61.7614 87 59 87H49C46.2386 87 44 84.7614 44 82V74.0208C44 72.6947 43.4732 71.423 42.5355 70.4853L36.5147 64.4645C35.577 63.5268 34.3053 63 32.9792 63H25C22.2386 63 20 60.7614 20 58V46C20 44.3431 21.3431 43 23 43V43C24.6569 43 26 41.6569 26 40V36C26 34.3431 24.6569 33 23 33V33C21.3431 33 20 31.6569 20 30V18C20 15.2386 22.2386 13 25 13H37C38.6569 13 40 14.3431 40 16V16C40 17.6569 41.3431 19 43 19H48.5C50.433 19 52 17.433 52 15.5V15.5Z" fill="white"/>
</svg>
